<mxfile host="app.diagrams.net" agent="Mozilla/5.0 (Windows NT 10.0; Win64; x64) AppleWebKit/537.36 (KHTML, like Gecko) Chrome/135.0.0.0 Safari/537.36" version="26.2.13">
  <diagram name="Page-1" id="13e1069c-82ec-6db2-03f1-153e76fe0fe0">
    <mxGraphModel dx="1093" dy="624" grid="1" gridSize="10" guides="1" tooltips="1" connect="1" arrows="1" fold="1" page="1" pageScale="1" pageWidth="1100" pageHeight="850" background="none" math="0" shadow="0">
      <root>
        <mxCell id="0" />
        <mxCell id="1" parent="0" />
        <mxCell id="wy3NqBjvac1jv113cRTb-2" value="Cek user/ control" style="shape=umlLifeline;perimeter=lifelinePerimeter;whiteSpace=wrap;html=1;container=1;collapsible=0;recursiveResize=0;outlineConnect=0;rounded=1;shadow=0;comic=0;labelBackgroundColor=none;strokeWidth=1;fontFamily=Verdana;fontSize=12;align=center;fillColor=#dae8fc;strokeColor=#6c8ebf;" parent="1" vertex="1">
          <mxGeometry x="380" y="190" width="100" height="580" as="geometry" />
        </mxCell>
        <mxCell id="wy3NqBjvac1jv113cRTb-3" value="" style="html=1;points=[];perimeter=orthogonalPerimeter;rounded=0;shadow=0;comic=0;labelBackgroundColor=none;strokeWidth=1;fontFamily=Verdana;fontSize=12;align=center;" parent="wy3NqBjvac1jv113cRTb-2" vertex="1">
          <mxGeometry x="45" y="270" width="10" height="30" as="geometry" />
        </mxCell>
        <mxCell id="wy3NqBjvac1jv113cRTb-4" value="database" style="shape=umlLifeline;perimeter=lifelinePerimeter;whiteSpace=wrap;html=1;container=1;collapsible=0;recursiveResize=0;outlineConnect=0;rounded=1;shadow=0;comic=0;labelBackgroundColor=none;strokeWidth=1;fontFamily=Verdana;fontSize=12;align=center;fillColor=#dae8fc;strokeColor=#6c8ebf;" parent="1" vertex="1">
          <mxGeometry x="535" y="190" width="100" height="580" as="geometry" />
        </mxCell>
        <mxCell id="wy3NqBjvac1jv113cRTb-5" value="" style="html=1;points=[];perimeter=orthogonalPerimeter;rounded=0;shadow=0;comic=0;labelBackgroundColor=none;strokeWidth=1;fontFamily=Verdana;fontSize=12;align=center;" parent="wy3NqBjvac1jv113cRTb-4" vertex="1">
          <mxGeometry x="45" y="320" width="10" height="210" as="geometry" />
        </mxCell>
        <mxCell id="wy3NqBjvac1jv113cRTb-6" value="halaman verifikasi" style="shape=umlLifeline;perimeter=lifelinePerimeter;whiteSpace=wrap;html=1;container=1;collapsible=0;recursiveResize=0;outlineConnect=0;rounded=1;shadow=0;comic=0;labelBackgroundColor=none;strokeWidth=1;fontFamily=Verdana;fontSize=12;align=center;fillColor=#dae8fc;strokeColor=#6c8ebf;" parent="1" vertex="1">
          <mxGeometry x="220" y="190" width="100" height="580" as="geometry" />
        </mxCell>
        <mxCell id="wy3NqBjvac1jv113cRTb-7" value="" style="html=1;points=[];perimeter=orthogonalPerimeter;rounded=0;shadow=0;comic=0;labelBackgroundColor=none;strokeWidth=1;fontFamily=Verdana;fontSize=12;align=center;" parent="wy3NqBjvac1jv113cRTb-6" vertex="1">
          <mxGeometry x="45" y="100" width="10" height="380" as="geometry" />
        </mxCell>
        <mxCell id="wy3NqBjvac1jv113cRTb-9" value="1. Halaman verifikasi &amp;amp; validasi" style="html=1;verticalAlign=bottom;endArrow=block;labelBackgroundColor=none;fontFamily=Verdana;fontSize=12;edgeStyle=elbowEdgeStyle;elbow=vertical;exitX=1;exitY=0.095;exitDx=0;exitDy=0;exitPerimeter=0;" parent="1" source="wy3NqBjvac1jv113cRTb-11" target="wy3NqBjvac1jv113cRTb-6" edge="1">
          <mxGeometry relative="1" as="geometry">
            <mxPoint x="370" y="200" as="sourcePoint" />
          </mxGeometry>
        </mxCell>
        <mxCell id="wy3NqBjvac1jv113cRTb-10" value="Admin/Petugas" style="shape=umlActor;verticalLabelPosition=bottom;verticalAlign=top;html=1;outlineConnect=0;fillColor=#dae8fc;strokeColor=#6c8ebf;" parent="1" vertex="1">
          <mxGeometry x="40" y="180" width="30" height="60" as="geometry" />
        </mxCell>
        <mxCell id="wy3NqBjvac1jv113cRTb-11" value="" style="html=1;points=[];perimeter=orthogonalPerimeter;rounded=0;shadow=0;comic=0;labelBackgroundColor=none;strokeWidth=1;fontFamily=Verdana;fontSize=12;align=center;" parent="1" vertex="1">
          <mxGeometry x="50" y="270" width="10" height="470" as="geometry" />
        </mxCell>
        <mxCell id="wy3NqBjvac1jv113cRTb-12" value="2. Pilih laporan" style="html=1;verticalAlign=bottom;endArrow=block;labelBackgroundColor=none;fontFamily=Verdana;fontSize=12;edgeStyle=elbowEdgeStyle;elbow=vertical;exitX=1.1;exitY=0.295;exitDx=0;exitDy=0;exitPerimeter=0;entryX=0.178;entryY=0.209;entryDx=0;entryDy=0;entryPerimeter=0;" parent="1" target="wy3NqBjvac1jv113cRTb-7" edge="1">
          <mxGeometry relative="1" as="geometry">
            <mxPoint x="60" y="370" as="sourcePoint" />
            <mxPoint x="248.5" y="370.15" as="targetPoint" />
          </mxGeometry>
        </mxCell>
        <mxCell id="wy3NqBjvac1jv113cRTb-13" value="5. Menampilkan status verified di database" style="html=1;verticalAlign=bottom;endArrow=block;labelBackgroundColor=none;fontFamily=Verdana;fontSize=12;edgeStyle=elbowEdgeStyle;elbow=vertical;exitX=1;exitY=0.606;exitDx=0;exitDy=0;exitPerimeter=0;" parent="1" source="wy3NqBjvac1jv113cRTb-7" target="wy3NqBjvac1jv113cRTb-4" edge="1">
          <mxGeometry relative="1" as="geometry">
            <mxPoint x="580" y="521" as="sourcePoint" />
            <mxPoint x="569.5" y="519.9981481481481" as="targetPoint" />
            <Array as="points">
              <mxPoint x="300" y="520" />
            </Array>
          </mxGeometry>
        </mxCell>
        <mxCell id="wy3NqBjvac1jv113cRTb-106" value="&lt;span style=&quot;font-size: 17px;&quot;&gt;Verifikasi dan Validasi&lt;/span&gt;" style="text;html=1;align=center;verticalAlign=middle;resizable=0;points=[];autosize=1;strokeColor=none;fillColor=none;" parent="1" vertex="1">
          <mxGeometry x="370" y="140" width="190" height="30" as="geometry" />
        </mxCell>
        <mxCell id="wy3NqBjvac1jv113cRTb-110" value="3. Melakukan verifikasi&lt;span style=&quot;color: rgba(0, 0, 0, 0); font-family: monospace; font-size: 0px; text-align: start;&quot;&gt;%3CmxGraphModel%3E%3Croot%3E%3CmxCell%20id%3D%220%22%2F%3E%3CmxCell%20id%3D%221%22%20parent%3D%220%22%2F%3E%3CmxCell%20id%3D%222%22%20value%3D%225.%20Menampilkan%20status%20verified%20di%20database%22%20style%3D%22html%3D1%3BverticalAlign%3Dbottom%3BendArrow%3Dblock%3BlabelBackgroundColor%3Dnone%3BfontFamily%3DVerdana%3BfontSize%3D12%3BedgeStyle%3DelbowEdgeStyle%3Belbow%3Dvertical%3BexitX%3D0.805%3BexitY%3D0.496%3BexitDx%3D0%3BexitDy%3D0%3BexitPerimeter%3D0%3B%22%20edge%3D%221%22%20parent%3D%221%22%3E%3CmxGeometry%20relative%3D%221%22%20as%3D%22geometry%22%3E%3CmxPoint%20x%3D%22283.05000000000007%22%20y%3D%22509.96000000000004%22%20as%3D%22sourcePoint%22%2F%3E%3CmxPoint%20x%3D%22569.5%22%20y%3D%22509.62814814814806%22%20as%3D%22targetPoint%22%2F%3E%3CArray%20as%3D%22points%22%2F%3E%3C%2FmxGeometry%3E%3C%2FmxCell%3E%3C%2Froot%3E%3C%2FmxGraphModel%3E&lt;/span&gt;" style="html=1;verticalAlign=bottom;endArrow=block;labelBackgroundColor=none;fontFamily=Verdana;fontSize=12;edgeStyle=elbowEdgeStyle;elbow=vertical;exitX=1.033;exitY=0.423;exitDx=0;exitDy=0;exitPerimeter=0;entryX=0.3;entryY=0.355;entryDx=0;entryDy=0;entryPerimeter=0;" parent="1" edge="1" target="wy3NqBjvac1jv113cRTb-7">
          <mxGeometry relative="1" as="geometry">
            <mxPoint x="59.99999999999993" y="424.99999999999994" as="sourcePoint" />
            <mxPoint x="240" y="425" as="targetPoint" />
            <Array as="points" />
          </mxGeometry>
        </mxCell>
        <mxCell id="wy3NqBjvac1jv113cRTb-113" value="8. Masukan ke arsip" style="html=1;verticalAlign=bottom;endArrow=block;labelBackgroundColor=none;fontFamily=Verdana;fontSize=12;edgeStyle=elbowEdgeStyle;elbow=vertical;exitX=0.844;exitY=0.62;exitDx=0;exitDy=0;exitPerimeter=0;entryX=0.233;entryY=0.598;entryDx=0;entryDy=0;entryPerimeter=0;" parent="1" source="wy3NqBjvac1jv113cRTb-5" target="wy3NqBjvac1jv113cRTb-120" edge="1">
          <mxGeometry relative="1" as="geometry">
            <mxPoint x="880.0000000000001" y="640.02" as="sourcePoint" />
            <mxPoint x="1162.63" y="640" as="targetPoint" />
            <Array as="points" />
          </mxGeometry>
        </mxCell>
        <mxCell id="wy3NqBjvac1jv113cRTb-114" value="&lt;br&gt;&lt;div&gt;&lt;br&gt;&lt;/div&gt;" style="edgeLabel;html=1;align=center;verticalAlign=middle;resizable=0;points=[];" parent="wy3NqBjvac1jv113cRTb-113" vertex="1" connectable="0">
          <mxGeometry x="-0.5589" y="1" relative="1" as="geometry">
            <mxPoint as="offset" />
          </mxGeometry>
        </mxCell>
        <mxCell id="wy3NqBjvac1jv113cRTb-115" value="&lt;br&gt;&lt;div&gt;&lt;br&gt;&lt;/div&gt;" style="edgeLabel;html=1;align=center;verticalAlign=middle;resizable=0;points=[];" parent="wy3NqBjvac1jv113cRTb-113" vertex="1" connectable="0">
          <mxGeometry x="-0.3471" relative="1" as="geometry">
            <mxPoint as="offset" />
          </mxGeometry>
        </mxCell>
        <mxCell id="wy3NqBjvac1jv113cRTb-116" value="6. Masukan ke list prioritas" style="html=1;verticalAlign=bottom;endArrow=block;labelBackgroundColor=none;fontFamily=Verdana;fontSize=12;edgeStyle=elbowEdgeStyle;elbow=vertical;exitX=0.841;exitY=0.281;exitDx=0;exitDy=0;exitPerimeter=0;entryX=0.178;entryY=0.251;entryDx=0;entryDy=0;entryPerimeter=0;" parent="1" source="wy3NqBjvac1jv113cRTb-5" target="wy3NqBjvac1jv113cRTb-120" edge="1">
          <mxGeometry relative="1" as="geometry">
            <mxPoint x="880" y="570" as="sourcePoint" />
            <mxPoint x="1160" y="570" as="targetPoint" />
            <Array as="points" />
          </mxGeometry>
        </mxCell>
        <mxCell id="wy3NqBjvac1jv113cRTb-118" value="4. kirim verifikasi" style="html=1;verticalAlign=bottom;endArrow=block;labelBackgroundColor=none;fontFamily=Verdana;fontSize=12;edgeStyle=elbowEdgeStyle;elbow=vertical;exitX=0.95;exitY=0.471;exitDx=0;exitDy=0;exitPerimeter=0;" parent="1" source="wy3NqBjvac1jv113cRTb-7" target="wy3NqBjvac1jv113cRTb-2" edge="1">
          <mxGeometry relative="1" as="geometry">
            <mxPoint x="69.99999999999993" y="434.99999999999994" as="sourcePoint" />
            <mxPoint x="285.84" y="435.1699999999999" as="targetPoint" />
          </mxGeometry>
        </mxCell>
        <mxCell id="wy3NqBjvac1jv113cRTb-119" value="halaman verifikasi" style="shape=umlLifeline;perimeter=lifelinePerimeter;whiteSpace=wrap;html=1;container=1;collapsible=0;recursiveResize=0;outlineConnect=0;rounded=1;shadow=0;comic=0;labelBackgroundColor=none;strokeWidth=1;fontFamily=Verdana;fontSize=12;align=center;fillColor=#dae8fc;strokeColor=#6c8ebf;" parent="1" vertex="1">
          <mxGeometry x="730" y="190" width="100" height="580" as="geometry" />
        </mxCell>
        <mxCell id="wy3NqBjvac1jv113cRTb-120" value="" style="html=1;points=[];perimeter=orthogonalPerimeter;rounded=0;shadow=0;comic=0;labelBackgroundColor=none;strokeWidth=1;fontFamily=Verdana;fontSize=12;align=center;" parent="wy3NqBjvac1jv113cRTb-119" vertex="1">
          <mxGeometry x="45" y="330" width="10" height="200" as="geometry" />
        </mxCell>
        <mxCell id="wy3NqBjvac1jv113cRTb-121" value="7. Menampilkan status denied database" style="html=1;verticalAlign=bottom;endArrow=block;labelBackgroundColor=none;fontFamily=Verdana;fontSize=12;edgeStyle=elbowEdgeStyle;elbow=vertical;exitX=1.028;exitY=0.809;exitDx=0;exitDy=0;exitPerimeter=0;entryX=0.028;entryY=0.429;entryDx=0;entryDy=0;entryPerimeter=0;" parent="1" source="wy3NqBjvac1jv113cRTb-7" target="wy3NqBjvac1jv113cRTb-5" edge="1">
          <mxGeometry relative="1" as="geometry">
            <mxPoint x="295" y="530" as="sourcePoint" />
            <mxPoint x="880" y="530" as="targetPoint" />
            <Array as="points">
              <mxPoint x="370" y="600" />
            </Array>
          </mxGeometry>
        </mxCell>
        <mxCell id="wy3NqBjvac1jv113cRTb-122" value="&lt;span style=&quot;font-size: 17px;&quot;&gt;Memberikan Tanggapan&lt;/span&gt;" style="text;html=1;align=center;verticalAlign=middle;resizable=0;points=[];autosize=1;strokeColor=none;fillColor=none;" parent="1" vertex="1">
          <mxGeometry x="370" y="910" width="210" height="30" as="geometry" />
        </mxCell>
        <mxCell id="wy3NqBjvac1jv113cRTb-125" value="cek user/ control" style="shape=umlLifeline;perimeter=lifelinePerimeter;whiteSpace=wrap;html=1;container=1;collapsible=0;recursiveResize=0;outlineConnect=0;rounded=1;shadow=0;comic=0;labelBackgroundColor=none;strokeWidth=1;fontFamily=Verdana;fontSize=12;align=center;fillColor=#dae8fc;strokeColor=#6c8ebf;" parent="1" vertex="1">
          <mxGeometry x="395" y="960" width="100" height="580" as="geometry" />
        </mxCell>
        <mxCell id="wy3NqBjvac1jv113cRTb-126" value="" style="html=1;points=[];perimeter=orthogonalPerimeter;rounded=0;shadow=0;comic=0;labelBackgroundColor=none;strokeWidth=1;fontFamily=Verdana;fontSize=12;align=center;" parent="wy3NqBjvac1jv113cRTb-125" vertex="1">
          <mxGeometry x="45" y="320" width="10" height="210" as="geometry" />
        </mxCell>
        <mxCell id="wy3NqBjvac1jv113cRTb-127" value="halaman tanggapan" style="shape=umlLifeline;perimeter=lifelinePerimeter;whiteSpace=wrap;html=1;container=1;collapsible=0;recursiveResize=0;outlineConnect=0;rounded=1;shadow=0;comic=0;labelBackgroundColor=none;strokeWidth=1;fontFamily=Verdana;fontSize=12;align=center;fillColor=#dae8fc;strokeColor=#6c8ebf;" parent="1" vertex="1">
          <mxGeometry x="200" y="960" width="100" height="580" as="geometry" />
        </mxCell>
        <mxCell id="wy3NqBjvac1jv113cRTb-128" value="" style="html=1;points=[];perimeter=orthogonalPerimeter;rounded=0;shadow=0;comic=0;labelBackgroundColor=none;strokeWidth=1;fontFamily=Verdana;fontSize=12;align=center;" parent="wy3NqBjvac1jv113cRTb-127" vertex="1">
          <mxGeometry x="45" y="100" width="10" height="380" as="geometry" />
        </mxCell>
        <mxCell id="wy3NqBjvac1jv113cRTb-129" value="1. Halaman tanggapan" style="html=1;verticalAlign=bottom;endArrow=block;labelBackgroundColor=none;fontFamily=Verdana;fontSize=12;edgeStyle=elbowEdgeStyle;elbow=vertical;exitX=1;exitY=0.095;exitDx=0;exitDy=0;exitPerimeter=0;" parent="1" source="wy3NqBjvac1jv113cRTb-131" target="wy3NqBjvac1jv113cRTb-127" edge="1">
          <mxGeometry relative="1" as="geometry">
            <mxPoint x="375" y="970" as="sourcePoint" />
          </mxGeometry>
        </mxCell>
        <mxCell id="wy3NqBjvac1jv113cRTb-130" value="Admin/Petugas" style="shape=umlActor;verticalLabelPosition=bottom;verticalAlign=top;html=1;outlineConnect=0;fillColor=#dae8fc;strokeColor=#6c8ebf;" parent="1" vertex="1">
          <mxGeometry x="45" y="950" width="30" height="60" as="geometry" />
        </mxCell>
        <mxCell id="wy3NqBjvac1jv113cRTb-131" value="" style="html=1;points=[];perimeter=orthogonalPerimeter;rounded=0;shadow=0;comic=0;labelBackgroundColor=none;strokeWidth=1;fontFamily=Verdana;fontSize=12;align=center;" parent="1" vertex="1">
          <mxGeometry x="55" y="1040" width="10" height="470" as="geometry" />
        </mxCell>
        <mxCell id="wy3NqBjvac1jv113cRTb-132" value="2. Menampilkan laporan" style="html=1;verticalAlign=bottom;endArrow=block;labelBackgroundColor=none;fontFamily=Verdana;fontSize=12;edgeStyle=elbowEdgeStyle;elbow=vertical;exitX=1.1;exitY=0.295;exitDx=0;exitDy=0;exitPerimeter=0;entryX=0.178;entryY=0.209;entryDx=0;entryDy=0;entryPerimeter=0;" parent="1" target="wy3NqBjvac1jv113cRTb-128" edge="1">
          <mxGeometry relative="1" as="geometry">
            <mxPoint x="65" y="1140" as="sourcePoint" />
            <mxPoint x="253.5" y="1140.15" as="targetPoint" />
          </mxGeometry>
        </mxCell>
        <mxCell id="wy3NqBjvac1jv113cRTb-133" value="5. kirim tanggapan" style="html=1;verticalAlign=bottom;endArrow=block;labelBackgroundColor=none;fontFamily=Verdana;fontSize=12;edgeStyle=elbowEdgeStyle;elbow=vertical;exitX=1;exitY=0.606;exitDx=0;exitDy=0;exitPerimeter=0;" parent="1" source="wy3NqBjvac1jv113cRTb-128" target="wy3NqBjvac1jv113cRTb-125" edge="1">
          <mxGeometry relative="1" as="geometry">
            <mxPoint x="585" y="1291" as="sourcePoint" />
            <mxPoint x="574.5" y="1289.9981481481482" as="targetPoint" />
            <Array as="points">
              <mxPoint x="305" y="1290" />
            </Array>
          </mxGeometry>
        </mxCell>
        <mxCell id="wy3NqBjvac1jv113cRTb-134" value="3. Pilih laporan" style="html=1;verticalAlign=bottom;endArrow=block;labelBackgroundColor=none;fontFamily=Verdana;fontSize=12;edgeStyle=elbowEdgeStyle;elbow=vertical;exitX=1.033;exitY=0.423;exitDx=0;exitDy=0;exitPerimeter=0;" parent="1" edge="1" target="wy3NqBjvac1jv113cRTb-127">
          <mxGeometry relative="1" as="geometry">
            <mxPoint x="64.99999999999993" y="1195" as="sourcePoint" />
            <mxPoint x="220" y="1197" as="targetPoint" />
          </mxGeometry>
        </mxCell>
        <mxCell id="wy3NqBjvac1jv113cRTb-138" value="7. notifikasi sukses" style="html=1;verticalAlign=bottom;endArrow=block;labelBackgroundColor=none;fontFamily=Verdana;fontSize=12;edgeStyle=elbowEdgeStyle;elbow=vertical;exitX=0.924;exitY=0.275;exitDx=0;exitDy=0;exitPerimeter=0;entryX=0.096;entryY=0.233;entryDx=0;entryDy=0;entryPerimeter=0;" parent="1" source="wy3NqBjvac1jv113cRTb-159" target="wy3NqBjvac1jv113cRTb-141" edge="1">
          <mxGeometry relative="1" as="geometry">
            <mxPoint x="885" y="1340" as="sourcePoint" />
            <mxPoint x="780" y="1337" as="targetPoint" />
            <Array as="points" />
          </mxGeometry>
        </mxCell>
        <mxCell id="wy3NqBjvac1jv113cRTb-139" value="4. input tanggapan" style="html=1;verticalAlign=bottom;endArrow=block;labelBackgroundColor=none;fontFamily=Verdana;fontSize=12;edgeStyle=elbowEdgeStyle;elbow=vertical;entryX=0.283;entryY=0.484;entryDx=0;entryDy=0;entryPerimeter=0;exitX=0.773;exitY=0.434;exitDx=0;exitDy=0;exitPerimeter=0;" parent="1" source="wy3NqBjvac1jv113cRTb-131" target="wy3NqBjvac1jv113cRTb-128" edge="1">
          <mxGeometry relative="1" as="geometry">
            <mxPoint x="70" y="1244" as="sourcePoint" />
            <mxPoint x="270" y="1239" as="targetPoint" />
            <Array as="points">
              <mxPoint x="60" y="1244" />
            </Array>
          </mxGeometry>
        </mxCell>
        <mxCell id="wy3NqBjvac1jv113cRTb-140" value="halaman tanggapan" style="shape=umlLifeline;perimeter=lifelinePerimeter;whiteSpace=wrap;html=1;container=1;collapsible=0;recursiveResize=0;outlineConnect=0;rounded=1;shadow=0;comic=0;labelBackgroundColor=none;strokeWidth=1;fontFamily=Verdana;fontSize=12;align=center;fillColor=#dae8fc;strokeColor=#6c8ebf;" parent="1" vertex="1">
          <mxGeometry x="770" y="960" width="100" height="580" as="geometry" />
        </mxCell>
        <mxCell id="wy3NqBjvac1jv113cRTb-141" value="" style="html=1;points=[];perimeter=orthogonalPerimeter;rounded=0;shadow=0;comic=0;labelBackgroundColor=none;strokeWidth=1;fontFamily=Verdana;fontSize=12;align=center;" parent="wy3NqBjvac1jv113cRTb-140" vertex="1">
          <mxGeometry x="45" y="330" width="10" height="200" as="geometry" />
        </mxCell>
        <mxCell id="wy3NqBjvac1jv113cRTb-143" value="&lt;span style=&quot;font-size: 17px;&quot;&gt;Generate Laporan&lt;/span&gt;" style="text;html=1;align=center;verticalAlign=middle;resizable=0;points=[];autosize=1;strokeColor=none;fillColor=none;" parent="1" vertex="1">
          <mxGeometry x="430" y="1630" width="160" height="30" as="geometry" />
        </mxCell>
        <mxCell id="wy3NqBjvac1jv113cRTb-144" value="sistem" style="shape=umlLifeline;perimeter=lifelinePerimeter;whiteSpace=wrap;html=1;container=1;collapsible=0;recursiveResize=0;outlineConnect=0;rounded=1;shadow=0;comic=0;labelBackgroundColor=none;strokeWidth=1;fontFamily=Verdana;fontSize=12;align=center;fillColor=#dae8fc;strokeColor=#6c8ebf;" parent="1" vertex="1">
          <mxGeometry x="535" y="1680" width="100" height="580" as="geometry" />
        </mxCell>
        <mxCell id="wy3NqBjvac1jv113cRTb-145" value="" style="html=1;points=[];perimeter=orthogonalPerimeter;rounded=0;shadow=0;comic=0;labelBackgroundColor=none;strokeWidth=1;fontFamily=Verdana;fontSize=12;align=center;" parent="wy3NqBjvac1jv113cRTb-144" vertex="1">
          <mxGeometry x="45" y="320" width="10" height="210" as="geometry" />
        </mxCell>
        <mxCell id="wy3NqBjvac1jv113cRTb-146" value="halaman&lt;div&gt;generate laporan&lt;/div&gt;" style="shape=umlLifeline;perimeter=lifelinePerimeter;whiteSpace=wrap;html=1;container=1;collapsible=0;recursiveResize=0;outlineConnect=0;rounded=1;shadow=0;comic=0;labelBackgroundColor=none;strokeWidth=1;fontFamily=Verdana;fontSize=12;align=center;fillColor=#dae8fc;strokeColor=#6c8ebf;" parent="1" vertex="1">
          <mxGeometry x="290" y="1680" width="100" height="580" as="geometry" />
        </mxCell>
        <mxCell id="wy3NqBjvac1jv113cRTb-147" value="" style="html=1;points=[];perimeter=orthogonalPerimeter;rounded=0;shadow=0;comic=0;labelBackgroundColor=none;strokeWidth=1;fontFamily=Verdana;fontSize=12;align=center;" parent="wy3NqBjvac1jv113cRTb-146" vertex="1">
          <mxGeometry x="45" y="100" width="10" height="380" as="geometry" />
        </mxCell>
        <mxCell id="wy3NqBjvac1jv113cRTb-148" value="1. Halaman generate laporan" style="html=1;verticalAlign=bottom;endArrow=block;labelBackgroundColor=none;fontFamily=Verdana;fontSize=12;edgeStyle=elbowEdgeStyle;elbow=vertical;exitX=1;exitY=0.095;exitDx=0;exitDy=0;exitPerimeter=0;" parent="1" source="wy3NqBjvac1jv113cRTb-150" target="wy3NqBjvac1jv113cRTb-146" edge="1">
          <mxGeometry relative="1" as="geometry">
            <mxPoint x="400" y="1690" as="sourcePoint" />
          </mxGeometry>
        </mxCell>
        <mxCell id="wy3NqBjvac1jv113cRTb-149" value="Admin" style="shape=umlActor;verticalLabelPosition=bottom;verticalAlign=top;html=1;outlineConnect=0;fillColor=#dae8fc;strokeColor=#6c8ebf;" parent="1" vertex="1">
          <mxGeometry x="70" y="1670" width="30" height="60" as="geometry" />
        </mxCell>
        <mxCell id="wy3NqBjvac1jv113cRTb-150" value="" style="html=1;points=[];perimeter=orthogonalPerimeter;rounded=0;shadow=0;comic=0;labelBackgroundColor=none;strokeWidth=1;fontFamily=Verdana;fontSize=12;align=center;" parent="1" vertex="1">
          <mxGeometry x="80" y="1760" width="10" height="470" as="geometry" />
        </mxCell>
        <mxCell id="wy3NqBjvac1jv113cRTb-151" value="2. Pilih laporan yang telah diverifikasi" style="html=1;verticalAlign=bottom;endArrow=block;labelBackgroundColor=none;fontFamily=Verdana;fontSize=12;edgeStyle=elbowEdgeStyle;elbow=vertical;exitX=1.1;exitY=0.295;exitDx=0;exitDy=0;exitPerimeter=0;entryX=0.178;entryY=0.209;entryDx=0;entryDy=0;entryPerimeter=0;" parent="1" target="wy3NqBjvac1jv113cRTb-147" edge="1">
          <mxGeometry relative="1" as="geometry">
            <mxPoint x="90" y="1860" as="sourcePoint" />
            <mxPoint x="278.5" y="1860.15" as="targetPoint" />
          </mxGeometry>
        </mxCell>
        <mxCell id="wy3NqBjvac1jv113cRTb-153" value="3. generate laporan terpilih" style="html=1;verticalAlign=bottom;endArrow=block;labelBackgroundColor=none;fontFamily=Verdana;fontSize=12;edgeStyle=elbowEdgeStyle;elbow=horizontal;exitX=1.033;exitY=0.423;exitDx=0;exitDy=0;exitPerimeter=0;entryX=0;entryY=0.353;entryDx=0;entryDy=0;entryPerimeter=0;" parent="1" target="wy3NqBjvac1jv113cRTb-147" edge="1">
          <mxGeometry relative="1" as="geometry">
            <mxPoint x="89.99999999999993" y="1915" as="sourcePoint" />
            <mxPoint x="330" y="1912" as="targetPoint" />
            <Array as="points">
              <mxPoint x="220" y="1910" />
            </Array>
          </mxGeometry>
        </mxCell>
        <mxCell id="wy3NqBjvac1jv113cRTb-154" value="6. menampilkan hasil generate" style="html=1;verticalAlign=bottom;endArrow=block;labelBackgroundColor=none;fontFamily=Verdana;fontSize=12;edgeStyle=elbowEdgeStyle;elbow=vertical;exitX=0.841;exitY=0.281;exitDx=0;exitDy=0;exitPerimeter=0;entryX=0.178;entryY=0.251;entryDx=0;entryDy=0;entryPerimeter=0;" parent="1" source="wy3NqBjvac1jv113cRTb-145" target="wy3NqBjvac1jv113cRTb-157" edge="1">
          <mxGeometry relative="1" as="geometry">
            <mxPoint x="910" y="2060" as="sourcePoint" />
            <mxPoint x="1190" y="2060" as="targetPoint" />
            <Array as="points" />
          </mxGeometry>
        </mxCell>
        <mxCell id="wy3NqBjvac1jv113cRTb-156" value="halaman verifikasi" style="shape=umlLifeline;perimeter=lifelinePerimeter;whiteSpace=wrap;html=1;container=1;collapsible=0;recursiveResize=0;outlineConnect=0;rounded=1;shadow=0;comic=0;labelBackgroundColor=none;strokeWidth=1;fontFamily=Verdana;fontSize=12;align=center;fillColor=#dae8fc;strokeColor=#6c8ebf;" parent="1" vertex="1">
          <mxGeometry x="770" y="1680" width="100" height="580" as="geometry" />
        </mxCell>
        <mxCell id="wy3NqBjvac1jv113cRTb-157" value="" style="html=1;points=[];perimeter=orthogonalPerimeter;rounded=0;shadow=0;comic=0;labelBackgroundColor=none;strokeWidth=1;fontFamily=Verdana;fontSize=12;align=center;" parent="wy3NqBjvac1jv113cRTb-156" vertex="1">
          <mxGeometry x="45" y="330" width="10" height="200" as="geometry" />
        </mxCell>
        <mxCell id="wy3NqBjvac1jv113cRTb-158" value="database" style="shape=umlLifeline;perimeter=lifelinePerimeter;whiteSpace=wrap;html=1;container=1;collapsible=0;recursiveResize=0;outlineConnect=0;rounded=1;shadow=0;comic=0;labelBackgroundColor=none;strokeWidth=1;fontFamily=Verdana;fontSize=12;align=center;fillColor=#dae8fc;strokeColor=#6c8ebf;" parent="1" vertex="1">
          <mxGeometry x="580" y="960" width="100" height="580" as="geometry" />
        </mxCell>
        <mxCell id="wy3NqBjvac1jv113cRTb-159" value="" style="html=1;points=[];perimeter=orthogonalPerimeter;rounded=0;shadow=0;comic=0;labelBackgroundColor=none;strokeWidth=1;fontFamily=Verdana;fontSize=12;align=center;" parent="wy3NqBjvac1jv113cRTb-158" vertex="1">
          <mxGeometry x="45" y="320" width="10" height="210" as="geometry" />
        </mxCell>
        <mxCell id="wy3NqBjvac1jv113cRTb-160" value="6. simpan tanggapan" style="html=1;verticalAlign=bottom;endArrow=block;labelBackgroundColor=none;fontFamily=Verdana;fontSize=12;edgeStyle=elbowEdgeStyle;elbow=vertical;entryX=0.326;entryY=0.207;entryDx=0;entryDy=0;entryPerimeter=0;exitX=0.891;exitY=0.2;exitDx=0;exitDy=0;exitPerimeter=0;" parent="1" source="wy3NqBjvac1jv113cRTb-126" target="wy3NqBjvac1jv113cRTb-159" edge="1">
          <mxGeometry relative="1" as="geometry">
            <mxPoint x="570" y="1320" as="sourcePoint" />
            <mxPoint x="570" y="1300" as="targetPoint" />
            <Array as="points" />
          </mxGeometry>
        </mxCell>
        <mxCell id="wy3NqBjvac1jv113cRTb-155" value="4. proses generate detail ke file pdf" style="html=1;verticalAlign=bottom;endArrow=block;labelBackgroundColor=none;fontFamily=Verdana;fontSize=12;edgeStyle=elbowEdgeStyle;elbow=vertical;entryX=-0.024;entryY=0.096;entryDx=0;entryDy=0;entryPerimeter=0;exitX=0.993;exitY=0.625;exitDx=0;exitDy=0;exitPerimeter=0;" parent="1" source="wy3NqBjvac1jv113cRTb-147" target="wy3NqBjvac1jv113cRTb-145" edge="1">
          <mxGeometry relative="1" as="geometry">
            <mxPoint x="370" y="2020" as="sourcePoint" />
            <mxPoint x="295" y="1959" as="targetPoint" />
            <Array as="points">
              <mxPoint x="460" y="2020" />
            </Array>
          </mxGeometry>
        </mxCell>
      </root>
    </mxGraphModel>
  </diagram>
</mxfile>
